# xmcd CD database file
#
# Track frame offsets:
#	150
#	28137
#	36589
#	62743
#	91938
#	120722
#	155737
#	180079
#	205231
#	246268
#
# Disc length: 3728 seconds
#
# Revision: 0
# Processed by: cddbd v1.4PL0 Copyright (c) Steve Scherf et al.
# Submitted via: CDex 1.50beta9
#
DISCID=870e8e0a
DTITLE=Wayne Shorter and Herbie Hancock - One and One
DYEAR=1997
DGENRE=Jazz
TTITLE0=Meridianne - A Wood Sylph
TTITLE1=Aung San Suu Kyi
TTITLE2=Sonrisa
TTITLE3=Memory of Enchantment
TTITLE4=Visitor from Nowhere
TTITLE5=Joanna's Theme
TTITLE6=Diana
TTITLE7=Visitor from Somwhere
TTITLE8=Manhattan Lorelei
TTITLE9=Hale-Bopp, Hip-Hop
EXTD=YEAR: 1997
EXTT0=
EXTT1=
EXTT2=
EXTT3=
EXTT4=
EXTT5=
EXTT6=
EXTT7=
EXTT8=
EXTT9=
PLAYORDER=
